<svg data-v-423bf9ae="" xmlns="http://www.w3.org/2000/svg" viewBox="0 0 418.0821609998165 193" class="fontAboveSlogan"><!----><!----><!----><g data-v-423bf9ae="" id="5e105ff5-4306-49b1-bd62-d330116795b1" fill="white" transform="matrix(13.698629779067634,0,0,13.698629779067634,-1.437924999665114,-66.98520514226406)"><path d="M0.21 7.27L0.11 5.14L7.31 5.14L7.22 7.27L6.52 7.27L6.24 6.01L4.54 6.01L4.54 12.84L5.82 13.15L5.82 13.72L1.61 13.72L1.61 13.15L2.90 12.84L2.90 6.01L1.16 6.01L0.90 7.27L0.21 7.27ZM9.35 11.58L8.93 12.85L9.91 13.15L9.91 13.72L6.90 13.72L6.90 13.16L7.91 12.84L10.54 5.14L11.54 4.96L14.36 12.84L15.37 13.15L15.37 13.72L11.77 13.72L11.77 13.15L12.66 12.88L12.22 11.58L9.35 11.58ZM11.96 10.86L10.74 7.46L9.59 10.86L11.96 10.86ZM21.35 6.01L20.36 5.73L20.36 5.14L23.37 5.14L23.37 5.70L22.37 6.02L20.26 10.29L20.26 12.84L21.56 13.15L21.56 13.72L17.35 13.72L17.35 13.15L18.63 12.84L18.63 10.29L16.44 6.02L15.46 5.71L15.46 5.14L19.14 5.14L19.14 5.73L18.23 6.02L19.80 9.13L21.35 6.01ZM23.53 7.27L23.44 5.14L30.63 5.14L30.55 7.27L29.85 7.27L29.57 6.01L27.86 6.01L27.86 12.84L29.15 13.15L29.15 13.72L24.93 13.72L24.93 13.15L26.22 12.84L26.22 6.01L24.49 6.01L24.22 7.27L23.53 7.27Z"></path></g><!----><!----><g data-v-423bf9ae="" id="a80edd18-2e95-447e-97fd-9a60190519ed" fill="white" transform="matrix(5.88235305117351,0,0,5.88235305117351,36.2763716791946,113.58824117208434)"><path d="M0.28 5.32L0.28 5.32Q0.28 4.76 0.42 3.88L0.42 3.88Q0.42 3.85 0.43 3.78Q0.43 3.71 0.44 3.69Q0.45 3.67 0.46 3.62Q0.46 3.57 0.48 3.55Q0.49 3.53 0.51 3.49Q0.53 3.46 0.56 3.44Q0.59 3.43 0.63 3.42Q0.67 3.40 0.73 3.39Q0.78 3.39 0.85 3.39L0.85 3.39Q1.08 3.39 2.04 3.44Q3.00 3.50 4.80 3.50L4.80 3.50Q7.88 3.50 9.11 3.43L9.11 3.43Q9.13 3.43 9.16 3.42Q9.20 3.42 9.21 3.42L9.21 3.42Q9.37 3.42 9.42 3.50Q9.48 3.58 9.48 3.65L9.48 3.65Q9.48 3.75 9.52 4.24Q9.56 4.73 9.56 4.79L9.56 4.79Q9.56 5.14 9.52 5.23Q9.48 5.32 9.34 5.32L9.34 5.32Q9.23 5.32 9.18 5.15L9.18 5.15Q9.07 4.75 8.99 4.60Q8.90 4.45 8.62 4.34Q8.34 4.23 7.77 4.23L7.77 4.23L5.95 4.23Q5.61 4.23 5.54 4.36Q5.46 4.49 5.46 5.12L5.46 5.12L5.46 5.81Q5.46 7.69 5.44 9.11Q5.42 10.54 5.42 10.93L5.42 10.93Q5.42 11.13 5.41 11.43Q5.40 11.73 5.40 11.84L5.40 11.84Q5.40 12.45 5.60 12.64L5.60 12.64Q5.78 12.81 6.01 12.90Q6.23 12.99 6.39 13.01Q6.55 13.02 6.66 13.08Q6.78 13.13 6.78 13.26L6.78 13.26Q6.78 13.41 6.71 13.45Q6.64 13.50 6.44 13.50L6.44 13.50Q6.27 13.50 5.70 13.44Q5.12 13.38 4.89 13.38L4.89 13.38Q4.72 13.38 4.21 13.43Q3.70 13.48 3.46 13.48L3.46 13.48Q2.94 13.48 2.94 13.26L2.94 13.26Q2.94 13.12 3.02 13.07Q3.11 13.02 3.35 12.98Q3.60 12.95 3.67 12.94L3.67 12.94Q4.14 12.82 4.20 12.38L4.20 12.38Q4.34 11.14 4.34 7.08L4.34 7.08L4.33 4.58Q4.33 4.31 4.17 4.25Q4.02 4.19 3.26 4.19L3.26 4.19Q2.28 4.19 1.79 4.24Q1.29 4.30 1.20 4.35Q1.12 4.40 1.01 4.54L1.01 4.54Q0.88 4.70 0.81 4.91Q0.73 5.11 0.71 5.24Q0.69 5.38 0.62 5.47Q0.56 5.56 0.43 5.56L0.43 5.56Q0.28 5.56 0.28 5.32ZM15.89 13.33L15.89 13.33Q15.89 13.13 16.10 13.06L16.10 13.06Q16.55 12.89 16.88 12.31Q17.22 11.73 18.55 8.83L18.55 8.83Q19.92 5.87 20.97 3.63L20.97 3.63Q21.07 3.42 21.15 3.36Q21.22 3.30 21.39 3.30L21.39 3.30Q21.52 3.30 21.56 3.36Q21.60 3.42 21.74 3.82L21.74 3.82Q21.83 4.06 21.89 4.23Q21.95 4.40 22.09 4.77Q22.23 5.15 22.40 5.56L22.40 5.56Q22.85 6.66 23.95 9.22Q25.05 11.77 25.14 11.98L25.14 11.98Q25.38 12.46 25.68 12.71Q25.97 12.95 26.19 12.97Q26.40 12.99 26.55 13.04Q26.70 13.09 26.70 13.26L26.70 13.26Q26.70 13.47 26.32 13.47L26.32 13.47Q26.17 13.47 25.72 13.43Q25.27 13.38 25.06 13.38L25.06 13.38Q24.79 13.38 24.37 13.41Q23.95 13.44 23.76 13.44L23.76 13.44Q23.32 13.44 23.21 13.40Q23.09 13.37 23.09 13.24L23.09 13.24Q23.09 13.15 23.20 13.08Q23.31 13.02 23.44 13.00Q23.56 12.98 23.67 12.87Q23.79 12.77 23.79 12.59L23.79 12.59Q23.79 12.28 23.44 11.33Q23.09 10.37 22.85 9.93L22.85 9.93Q22.72 9.69 22.27 9.69L22.27 9.69Q22.20 9.69 21.66 9.70Q21.11 9.72 20.58 9.72L20.58 9.72L19.84 9.72Q19.21 9.72 19.05 9.79Q18.89 9.86 18.76 10.12L18.76 10.12Q18.68 10.30 18.48 10.70Q18.28 11.10 18.21 11.26Q18.14 11.41 18.04 11.65Q17.93 11.90 17.90 12.05Q17.86 12.19 17.86 12.31L17.86 12.31Q17.86 12.63 18.03 12.80Q18.19 12.96 18.38 12.98Q18.58 13.01 18.74 13.06Q18.90 13.12 18.90 13.26L18.90 13.26Q18.90 13.36 18.86 13.40Q18.82 13.45 18.66 13.45L18.66 13.45Q18.58 13.45 18.18 13.45Q17.78 13.44 17.50 13.44L17.50 13.44Q17.19 13.44 16.81 13.47Q16.42 13.50 16.30 13.50L16.30 13.50Q15.89 13.50 15.89 13.33ZM19.40 8.71L19.40 8.71Q19.40 8.89 19.53 8.93Q19.66 8.97 20.12 8.97L20.12 8.97L20.55 8.97L21.88 8.96Q22.43 8.96 22.43 8.74L22.43 8.74Q22.43 8.55 21.74 7.01Q21.06 5.46 20.87 5.46L20.87 5.46Q20.75 5.46 20.08 7.01Q19.40 8.55 19.40 8.71ZM32.21 3.81L32.21 3.81Q32.21 3.65 32.38 3.61Q32.54 3.57 33.08 3.57L33.08 3.57Q33.17 3.57 33.47 3.58Q33.77 3.60 33.89 3.60L33.89 3.60Q34.05 3.60 34.46 3.59Q34.87 3.58 35.08 3.58L35.08 3.58Q35.78 3.58 35.78 3.75L35.78 3.75Q35.78 3.91 35.49 4.01Q35.20 4.12 35.20 4.24L35.20 4.24Q35.20 4.38 35.29 4.61Q35.38 4.83 35.47 4.97Q35.56 5.11 35.74 5.38Q35.92 5.64 35.95 5.70L35.95 5.70Q36.43 6.45 36.94 7.14Q37.45 7.83 37.52 7.83L37.52 7.83Q37.60 7.83 37.73 7.66Q37.86 7.50 38.08 7.13Q38.30 6.75 38.46 6.52L38.46 6.52Q38.50 6.45 38.66 6.22Q38.82 5.98 38.89 5.88Q38.95 5.78 39.07 5.58Q39.20 5.38 39.26 5.27Q39.31 5.17 39.39 5.02Q39.47 4.87 39.49 4.77Q39.52 4.68 39.52 4.59L39.52 4.59Q39.52 4.14 39.05 4.03L39.05 4.03Q38.99 4.02 38.89 4.00Q38.78 3.99 38.73 3.98Q38.68 3.96 38.61 3.93Q38.54 3.91 38.51 3.86Q38.49 3.81 38.49 3.74L38.49 3.74Q38.49 3.57 38.88 3.57L38.88 3.57Q38.95 3.57 39.14 3.58Q39.33 3.58 39.45 3.58L39.45 3.58Q39.77 3.58 40.23 3.59Q40.68 3.60 40.94 3.60L40.94 3.60Q41.62 3.60 41.62 3.81L41.62 3.81Q41.62 3.86 41.54 3.91Q41.45 3.95 41.30 4.02Q41.15 4.09 41.02 4.19L41.02 4.19Q40.45 4.63 39.33 6.31Q38.22 7.99 38.07 8.19L38.07 8.19Q37.84 8.47 37.79 8.81Q37.73 9.14 37.73 9.95L37.73 9.95Q37.73 10.14 37.74 10.73Q37.74 11.33 37.74 11.58L37.74 11.58L37.74 11.91Q37.74 12.38 37.91 12.64Q38.07 12.91 38.21 12.96Q38.35 13.01 38.49 13.01L38.49 13.01Q38.51 13.01 38.63 13.01Q38.74 13.02 38.77 13.02L38.77 13.02Q38.86 13.02 38.92 13.08Q38.98 13.15 38.98 13.22L38.98 13.22Q38.98 13.36 38.91 13.40Q38.84 13.44 38.64 13.44L38.64 13.44Q38.57 13.44 38.03 13.43Q37.49 13.43 37.24 13.43L37.24 13.43Q36.75 13.43 36.34 13.45Q35.94 13.48 35.70 13.48L35.70 13.48Q35.31 13.48 35.31 13.33L35.31 13.33Q35.31 13.20 35.38 13.15Q35.46 13.10 35.64 13.09Q35.83 13.08 35.91 13.05L35.91 13.05Q36.50 12.87 36.50 12.19L36.50 12.19Q36.50 12.11 36.51 11.92Q36.51 11.73 36.52 11.12Q36.53 10.50 36.53 9.35L36.53 9.35Q36.53 9.13 36.49 8.97Q36.46 8.81 36.41 8.65Q36.36 8.50 36.17 8.20Q35.98 7.91 35.80 7.64Q35.62 7.36 35.18 6.72Q34.73 6.08 34.33 5.46L34.33 5.46Q33.89 4.80 33.54 4.46Q33.19 4.12 33.01 4.05Q32.82 3.99 32.56 3.99L32.56 3.99Q32.21 3.99 32.21 3.81ZM49.18 5.32L49.18 5.32Q49.18 4.76 49.32 3.88L49.32 3.88Q49.32 3.85 49.33 3.78Q49.34 3.71 49.34 3.69Q49.35 3.67 49.36 3.62Q49.36 3.57 49.38 3.55Q49.39 3.53 49.41 3.49Q49.43 3.46 49.46 3.44Q49.49 3.43 49.53 3.42Q49.57 3.40 49.63 3.39Q49.69 3.39 49.76 3.39L49.76 3.39Q49.98 3.39 50.94 3.44Q51.90 3.50 53.70 3.50L53.70 3.50Q56.78 3.50 58.02 3.43L58.02 3.43Q58.03 3.43 58.06 3.42Q58.10 3.42 58.11 3.42L58.11 3.42Q58.27 3.42 58.32 3.50Q58.38 3.58 58.38 3.65L58.38 3.65Q58.38 3.75 58.42 4.24Q58.46 4.73 58.46 4.79L58.46 4.79Q58.46 5.14 58.42 5.23Q58.38 5.32 58.24 5.32L58.24 5.32Q58.13 5.32 58.09 5.15L58.09 5.15Q57.97 4.75 57.89 4.60Q57.81 4.45 57.53 4.34Q57.25 4.23 56.67 4.23L56.67 4.23L54.85 4.23Q54.52 4.23 54.44 4.36Q54.36 4.49 54.36 5.12L54.36 5.12L54.36 5.81Q54.36 7.69 54.34 9.11Q54.32 10.54 54.32 10.93L54.32 10.93Q54.32 11.13 54.31 11.43Q54.31 11.73 54.31 11.84L54.31 11.84Q54.31 12.45 54.50 12.64L54.50 12.64Q54.68 12.81 54.91 12.90Q55.13 12.99 55.29 13.01Q55.45 13.02 55.57 13.08Q55.68 13.13 55.68 13.26L55.68 13.26Q55.68 13.41 55.61 13.45Q55.54 13.50 55.34 13.50L55.34 13.50Q55.17 13.50 54.60 13.44Q54.03 13.38 53.79 13.38L53.79 13.38Q53.62 13.38 53.11 13.43Q52.60 13.48 52.36 13.48L52.36 13.48Q51.84 13.48 51.84 13.26L51.84 13.26Q51.84 13.12 51.93 13.07Q52.01 13.02 52.26 12.98Q52.50 12.95 52.57 12.94L52.57 12.94Q53.05 12.82 53.10 12.38L53.10 12.38Q53.24 11.14 53.24 7.08L53.24 7.08L53.23 4.58Q53.23 4.31 53.07 4.25Q52.92 4.19 52.16 4.19L52.16 4.19Q51.18 4.19 50.69 4.24Q50.19 4.30 50.11 4.35Q50.02 4.40 49.91 4.54L49.91 4.54Q49.78 4.70 49.71 4.91Q49.63 5.11 49.61 5.24Q49.59 5.38 49.52 5.47Q49.46 5.56 49.34 5.56L49.34 5.56Q49.18 5.56 49.18 5.32Z"></path></g></svg>