<svg data-v-fde0c5aa="" xmlns="http://www.w3.org/2000/svg" viewBox="0 0 300 300" class="iconLeft"><!----><defs data-v-fde0c5aa=""><!----></defs><rect data-v-fde0c5aa="" fill="transparent" x="0" y="0" width="300px" height="300px" class="logo-background-square"></rect><defs data-v-fde0c5aa=""><!----></defs><g data-v-fde0c5aa="" id="16a44677-2f74-42b8-a5cd-6b1c602042fe" fill="#000000" transform="matrix(1.8388558436070344,0,0,1.8388558436070344,88.87607683361045,130.63684801942802)"><path d="M3.32 14.35L4.61 14.35L4.61 12.92L3.22 12.92L3.22 8.47L4.72 8.47L4.72 7.04L3.22 7.04L3.22 5.04L1.61 5.04L1.61 6.29C1.61 6.79 1.44 7.04 0.91 7.04L0.35 7.04L0.35 8.47L1.43 8.47L1.43 12.49C1.43 13.68 2.09 14.35 3.32 14.35ZM8.08 14.52C9.17 14.52 9.97 14.03 10.21 13.09L10.29 13.09C10.40 13.85 10.88 14.35 11.65 14.35L12.64 14.35L12.64 12.92L11.91 12.92L11.91 9.48C11.91 7.81 10.86 6.87 8.89 6.87C7.42 6.87 6.57 7.43 6.03 8.27L7.10 9.23C7.45 8.72 7.92 8.30 8.76 8.30C9.72 8.30 10.12 8.78 10.12 9.59L10.12 10.12L8.88 10.12C6.89 10.12 5.75 10.86 5.75 12.36C5.75 13.66 6.59 14.52 8.08 14.52ZM8.68 13.22C7.98 13.22 7.57 12.92 7.57 12.33L7.57 12.10C7.57 11.52 8.04 11.20 8.97 11.20L10.12 11.20L10.12 12.17C10.12 12.85 9.48 13.22 8.68 13.22ZM14.99 5.98C15.72 5.98 16.04 5.60 16.04 5.08L16.04 4.80C16.04 4.28 15.72 3.91 14.99 3.91C14.25 3.91 13.94 4.28 13.94 4.80L13.94 5.08C13.94 5.60 14.25 5.98 14.99 5.98ZM14.10 14.35L15.89 14.35L15.89 7.04L14.10 7.04ZM20.72 14.35L20.72 12.92L19.75 12.92L19.75 3.99L17.96 3.99L17.96 12.59C17.96 13.71 18.54 14.35 19.75 14.35ZM24.98 14.52C27.08 14.52 28.38 13.03 28.38 10.68C28.38 8.34 27.08 6.87 24.98 6.87C22.89 6.87 21.59 8.34 21.59 10.68C21.59 13.03 22.89 14.52 24.98 14.52ZM24.98 13.08C24.05 13.08 23.46 12.47 23.46 11.37L23.46 10.01C23.46 8.92 24.05 8.32 24.98 8.32C25.91 8.32 26.50 8.92 26.50 10.01L26.50 11.37C26.50 12.47 25.91 13.08 24.98 13.08ZM31.75 14.35L31.75 9.87C31.75 9.07 32.38 8.74 33.59 8.74L34.15 8.74L34.15 7.04L33.75 7.04C32.59 7.04 32.00 7.78 31.82 8.55L31.75 8.55L31.75 7.04L29.96 7.04L29.96 14.35ZM37.11 14.52C38.21 14.52 39.00 14.03 39.24 13.09L39.33 13.09C39.44 13.85 39.91 14.35 40.68 14.35L41.68 14.35L41.68 12.92L40.95 12.92L40.95 9.48C40.95 7.81 39.90 6.87 37.93 6.87C36.46 6.87 35.60 7.43 35.07 8.27L36.13 9.23C36.48 8.72 36.96 8.30 37.80 8.30C38.75 8.30 39.16 8.78 39.16 9.59L39.16 10.12L37.91 10.12C35.92 10.12 34.79 10.86 34.79 12.36C34.79 13.66 35.63 14.52 37.11 14.52ZM37.72 13.22C37.02 13.22 36.61 12.92 36.61 12.33L36.61 12.10C36.61 11.52 37.07 11.20 38.01 11.20L39.16 11.20L39.16 12.17C39.16 12.85 38.51 13.22 37.72 13.22ZM45.36 14.35L46.65 14.35L46.65 12.92L45.26 12.92L45.26 8.47L46.76 8.47L46.76 7.04L45.26 7.04L45.26 5.04L43.65 5.04L43.65 6.29C43.65 6.79 43.48 7.04 42.95 7.04L42.39 7.04L42.39 8.47L43.47 8.47L43.47 12.49C43.47 13.68 44.13 14.35 45.36 14.35ZM51.52 10.91L51.02 12.75L50.93 12.75L50.46 10.91L49.18 7.04L47.40 7.04L50.02 14.70L49.69 15.72L48.37 15.72L48.37 17.15L49.45 17.15C50.65 17.15 51.17 16.70 51.53 15.65L54.47 7.04L52.79 7.04ZM58.45 14.52C60.55 14.52 61.85 13.03 61.85 10.68C61.85 8.34 60.55 6.87 58.45 6.87C56.36 6.87 55.06 8.34 55.06 10.68C55.06 13.03 56.36 14.52 58.45 14.52ZM58.45 13.08C57.53 13.08 56.94 12.47 56.94 11.37L56.94 10.01C56.94 8.92 57.53 8.32 58.45 8.32C59.39 8.32 59.98 8.92 59.98 10.01L59.98 11.37C59.98 12.47 59.39 13.08 58.45 13.08ZM67.80 14.35L69.59 14.35L69.59 7.04L67.80 7.04L67.80 11.87C67.80 12.66 67.09 13.03 66.37 13.03C65.52 13.03 65.14 12.49 65.14 11.48L65.14 7.04L63.35 7.04L63.35 11.66C63.35 13.48 64.19 14.52 65.69 14.52C66.89 14.52 67.48 13.86 67.73 13.13L67.80 13.13ZM73.46 14.35L73.46 9.87C73.46 9.07 74.09 8.74 75.29 8.74L75.85 8.74L75.85 7.04L75.46 7.04C74.30 7.04 73.71 7.78 73.53 8.55L73.46 8.55L73.46 7.04L71.67 7.04L71.67 14.35ZM79.51 14.35L80.79 14.35L80.79 12.92L79.41 12.92L79.41 8.47L80.91 8.47L80.91 7.04L79.41 7.04L79.41 5.04L77.80 5.04L77.80 6.29C77.80 6.79 77.63 7.04 77.10 7.04L76.54 7.04L76.54 8.47L77.62 8.47L77.62 12.49C77.62 13.68 78.27 14.35 79.51 14.35ZM83.36 5.98C84.08 5.98 84.41 5.60 84.41 5.08L84.41 4.80C84.41 4.28 84.08 3.91 83.36 3.91C82.61 3.91 82.31 4.28 82.31 4.80L82.31 5.08C82.31 5.60 82.61 5.98 83.36 5.98ZM82.46 14.35L84.25 14.35L84.25 7.04L82.46 7.04ZM86.32 17.15L88.12 17.15L88.12 13.13L88.17 13.13C88.45 13.96 89.22 14.52 90.19 14.52C92.04 14.52 93.06 13.13 93.06 10.68C93.06 8.25 92.04 6.87 90.19 6.87C89.22 6.87 88.44 7.41 88.17 8.25L88.12 8.25L88.12 7.04L86.32 7.04ZM89.61 13.03C88.76 13.03 88.12 12.60 88.12 11.84L88.12 9.52C88.12 8.81 88.76 8.34 89.61 8.34C90.54 8.34 91.18 9.03 91.18 10.07L91.18 11.33C91.18 12.36 90.54 13.03 89.61 13.03Z"></path></g><defs data-v-fde0c5aa=""><linearGradient data-v-fde0c5aa="" gradientTransform="rotate(25)" id="3c1a7d24-a075-4de1-bfbf-06110c5c4338" x1="0%" y1="0%" x2="100%" y2="0%"><stop data-v-fde0c5aa="" offset="0%" stop-color="#E90DDA" stop-opacity="1"></stop><stop data-v-fde0c5aa="" offset="100%" stop-color="#15CFF1" stop-opacity="1"></stop></linearGradient></defs><g data-v-fde0c5aa="" id="79021d04-92d5-4a56-b718-d46b81578e0c" stroke="none" fill="url(#3c1a7d24-a075-4de1-bfbf-06110c5c4338)" transform="matrix(1.141239888209833,0,0,1.141239888209833,40,131.74016178864267)"><path d="M11.579 32H32L21.789 14.314z"></path><circle cx="8.683" cy="8.683" r="8.683"></circle></g><!----></svg>